<svg width="24" height="24" viewBox="0 0 24 24" fill="none" xmlns="http://www.w3.org/2000/svg">
<path d="M11.25 6.75V12C11.25 12.1989 11.329 12.3897 11.4697 12.5303C11.6103 12.671 11.8011 12.75 12 12.75H17.25C17.4489 12.75 17.6397 12.671 17.7803 12.5303C17.921 12.3897 18 12.1989 18 12C18 11.8011 17.921 11.6103 17.7803 11.4697C17.6397 11.329 17.4489 11.25 17.25 11.25H12.75V6.75C12.75 6.55109 12.671 6.36032 12.5303 6.21967C12.3897 6.07902 12.1989 6 12 6C11.8011 6 11.6103 6.07902 11.4697 6.21967C11.329 6.36032 11.25 6.55109 11.25 6.75ZM15 4.5C15.2225 4.5 15.44 4.43402 15.625 4.3104C15.81 4.18679 15.9542 4.01109 16.0394 3.80552C16.1245 3.59995 16.1468 3.37375 16.1034 3.15552C16.06 2.9373 15.9528 2.73684 15.7955 2.57951C15.6382 2.42217 15.4377 2.31503 15.2195 2.27162C15.0012 2.22821 14.775 2.25049 14.5695 2.33564C14.3639 2.42078 14.1882 2.56498 14.0646 2.74998C13.941 2.93499 13.875 3.1525 13.875 3.375C13.875 3.67337 13.9935 3.95952 14.2045 4.1705C14.4155 4.38147 14.7016 4.5 15 4.5ZM18.375 6.75C18.5975 6.75 18.815 6.68402 19 6.5604C19.185 6.43679 19.3292 6.26109 19.4144 6.05552C19.4995 5.84995 19.5218 5.62375 19.4784 5.40552C19.435 5.1873 19.3278 4.98684 19.1705 4.82951C19.0132 4.67217 18.8127 4.56503 18.5945 4.52162C18.3762 4.47821 18.15 4.50049 17.9445 4.58564C17.7389 4.67078 17.5632 4.81498 17.4396 4.99998C17.316 5.18499 17.25 5.4025 17.25 5.625C17.25 5.92337 17.3685 6.20952 17.5795 6.4205C17.7905 6.63147 18.0766 6.75 18.375 6.75ZM20.625 10.125C20.8475 10.125 21.065 10.059 21.25 9.9354C21.435 9.81179 21.5792 9.63609 21.6644 9.43052C21.7495 9.22495 21.7718 8.99875 21.7284 8.78052C21.685 8.56229 21.5778 8.36184 21.4205 8.2045C21.2632 8.04717 21.0627 7.94003 20.8445 7.89662C20.6262 7.85321 20.4 7.87549 20.1945 7.96064C19.9889 8.04578 19.8132 8.18998 19.6896 8.37498C19.566 8.55999 19.5 8.7775 19.5 9C19.5 9.29837 19.6185 9.58452 19.8295 9.7955C20.0405 10.0065 20.3266 10.125 20.625 10.125Z" fill="#A1ABBD"/>
<path d="M2.2998 12C2.2998 6.64284 6.64284 2.29981 12 2.29981C12.3866 2.29981 12.7002 2.6134 12.7002 3C12.7002 3.3866 12.3866 3.7002 12 3.7002C7.41604 3.7002 3.7002 7.41604 3.7002 12C3.7002 16.584 7.41604 20.2998 12 20.2998C16.584 20.2998 20.2998 16.584 20.2998 12C20.2998 11.6134 20.6134 11.2998 21 11.2998C21.3866 11.2998 21.7002 11.6134 21.7002 12C21.7002 17.3572 17.3572 21.7002 12 21.7002C6.64284 21.7002 2.2998 17.3572 2.2998 12Z" fill="#A1ABBD"/>
</svg>
