<svg width="18" height="18" viewBox="0 0 18 18" fill="none" xmlns="http://www.w3.org/2000/svg">
<path d="M0 9C0 4.02944 4.02944 0 9 0C13.9706 0 18 4.02944 18 9C18 13.9706 13.9706 18 9 18C4.02944 18 0 13.9706 0 9Z" fill="#43BE70"/>
<path d="M5.1132 12.7453L8.90862 4.20561C8.94381 4.12643 9.05619 4.12643 9.09138 4.20561L12.8868 12.7453C12.9249 12.831 12.8346 12.9173 12.7507 12.8753L9.04472 11.0224C9.01657 11.0083 8.98343 11.0083 8.95528 11.0224L5.24931 12.8753C5.16539 12.9173 5.0751 12.831 5.1132 12.7453Z" stroke="white" stroke-width="1.5" stroke-linecap="round"/>
</svg>