<svg width="24" height="24" viewBox="0 0 24 24" fill="none" xmlns="http://www.w3.org/2000/svg">
<path d="M17.0488 18.1562L17.1855 18.2295C17.4396 18.3404 17.7272 18.3146 17.9531 18.1865C18.1774 18.0592 18.2997 17.8593 18.2998 17.6338V4.36426C18.2998 4.04749 18.0054 3.70031 17.5264 3.7002H6.47363C5.99464 3.70031 5.70023 4.04749 5.7002 4.36426V17.6338C5.70029 17.8593 5.82263 18.0592 6.04688 18.1865C6.27251 18.3145 6.55958 18.34 6.81348 18.2295L6.9502 18.1562L12 14.9648L17.0488 18.1562ZM19.7002 17.6338C19.7 19.2651 17.9182 20.1032 16.5918 19.498L16.5703 19.4883L16.5498 19.4775L16.3623 19.376L16.3418 19.3652L16.3213 19.3516L12 16.6211L7.67871 19.3516L7.6582 19.3652L7.6377 19.376L7.4502 19.4775L7.42969 19.4883L7.4082 19.498C6.08176 20.1032 4.3 19.2651 4.2998 17.6338V4.36426C4.29984 3.17447 5.32518 2.29993 6.47363 2.2998H17.5264C18.6748 2.29993 19.7002 3.17447 19.7002 4.36426V17.6338Z" fill="#1A132F"/>
</svg>
