<svg width="24" height="24" viewBox="0 0 24 24" fill="none" xmlns="http://www.w3.org/2000/svg">
<path d="M17.0488 19.1562L17.1855 19.2295C17.4396 19.3404 17.7272 19.3146 17.9531 19.1865C18.1774 19.0592 18.2997 18.8593 18.2998 18.6338V5.36426C18.2998 5.04749 18.0054 4.70031 17.5264 4.7002H6.47363C5.99464 4.70031 5.70023 5.04749 5.7002 5.36426V18.6338C5.70029 18.8593 5.82263 19.0592 6.04688 19.1865C6.27251 19.3145 6.55958 19.34 6.81348 19.2295L6.9502 19.1562L12 15.9648L17.0488 19.1562ZM19.7002 18.6338C19.7 20.2651 17.9182 21.1032 16.5918 20.498L16.5703 20.4883L16.5498 20.4775L16.3623 20.376L16.3418 20.3652L16.3213 20.3516L12 17.6211L7.67871 20.3516L7.6582 20.3652L7.6377 20.376L7.4502 20.4775L7.42969 20.4883L7.4082 20.498C6.08176 21.1032 4.3 20.2651 4.2998 18.6338V5.36426C4.29984 4.17447 5.32518 3.29993 6.47363 3.2998H17.5264C18.6748 3.29993 19.7002 4.17447 19.7002 5.36426V18.6338Z" fill="#1A132F"/>
</svg>
