<svg width="24" height="24" viewBox="0 0 24 24" fill="none" xmlns="http://www.w3.org/2000/svg">
<path d="M20.2764 19.6035C20.6626 19.6039 20.9756 19.9173 20.9756 20.3037C20.9756 20.6901 20.6626 21.0035 20.2764 21.0039H3.72461C3.33801 21.0039 3.02441 20.6903 3.02441 20.3037C3.02441 19.9171 3.33801 19.6035 3.72461 19.6035H20.2764ZM12 3C12.3866 3 12.7002 3.31457 12.7002 3.70117V15.5684L17.8242 11.1514C18.117 10.8993 18.5592 10.932 18.8115 11.2246C19.0636 11.5173 19.0308 11.9595 18.7383 12.2119L12.457 17.627C12.1944 17.8534 11.8056 17.8533 11.543 17.627L5.2627 12.2119C4.96995 11.9595 4.93711 11.5174 5.18945 11.2246C5.4419 10.932 5.88401 10.8991 6.17676 11.1514L11.2998 15.5684V3.70117C11.2998 3.31457 11.6134 3 12 3Z" fill="#1A132F"/>
</svg>
