<svg width="12" height="12" viewBox="0 0 12 12" fill="none" xmlns="http://www.w3.org/2000/svg">
<g clip-path="url(#clip0_7950_3426)">
<path d="M6 0.5C9.03757 0.5 11.5 2.96243 11.5 6C11.5 9.03757 9.03757 11.5 6 11.5C2.96243 11.5 0.5 9.03757 0.5 6C0.5 2.96243 2.96243 0.5 6 0.5Z" fill="#2A4AF5"/>
<path d="M6.00012 7.44995C7.0277 7.45001 8.09382 7.67528 8.88 8.57593C8.9965 8.70943 9.1027 8.85653 9.20227 9.01538C8.94764 9.28569 8.65938 9.52331 8.34387 9.72241C8.25234 9.55778 8.15529 9.41711 8.05188 9.29858C7.56555 8.74155 6.88107 8.54962 6.00012 8.54956C5.11908 8.54959 4.43473 8.74151 3.94836 9.29858C3.84479 9.41727 3.74608 9.55747 3.65442 9.72241C3.33923 9.52338 3.05139 9.28549 2.797 9.01538C2.89663 8.85642 3.00366 8.7095 3.12024 8.57593C3.90648 7.67522 4.97248 7.44998 6.00012 7.44995ZM6.00012 2.44995C7.13206 2.45017 8.04982 3.36779 8.04993 4.49976C8.04993 5.63181 7.13212 6.54935 6.00012 6.54956C4.86803 6.54945 3.95032 5.63187 3.95032 4.49976C3.95042 3.36773 4.86809 2.45006 6.00012 2.44995ZM6.00012 3.54956C5.47561 3.54967 5.05003 3.97524 5.04993 4.49976C5.04993 5.02436 5.47554 5.44985 6.00012 5.44995C6.52461 5.44974 6.95032 5.02429 6.95032 4.49976C6.95021 3.97531 6.52454 3.54978 6.00012 3.54956Z" fill="white"/>
</g>
<defs>
<clipPath id="clip0_7950_3426">
<rect width="12" height="12" fill="white"/>
</clipPath>
</defs>
</svg>
