<svg width="24" height="24" viewBox="0 0 24 24" fill="none" xmlns="http://www.w3.org/2000/svg">
<path d="M17.6006 13.9004C19.6748 13.9004 21.3564 15.5821 21.3564 17.6562C21.3564 19.7305 19.6748 21.4121 17.6006 21.4121C15.6603 21.412 14.0634 19.9406 13.8652 18.0527C13.8313 18.0366 13.7934 18.0174 13.75 18C13.4596 17.8839 12.9371 17.7451 12.0996 17.7451C11.2624 17.7452 10.7406 17.8839 10.4502 18C10.4063 18.0176 10.3682 18.0365 10.334 18.0527C10.1358 19.9405 8.53988 21.4121 6.59961 21.4121C4.52544 21.412 2.84382 19.7304 2.84375 17.6562C2.84384 15.5821 4.52545 13.9005 6.59961 13.9004C8.3082 13.9004 9.74872 15.0419 10.2041 16.6035C10.6617 16.4582 11.2809 16.3448 12.0996 16.3447C12.9181 16.3447 13.5375 16.4583 13.9951 16.6035C14.4504 15.0418 15.892 13.9005 17.6006 13.9004ZM7.95898 2.2959C8.27218 2.33224 8.54122 2.48697 8.74023 2.62891C8.98251 2.80174 9.22264 3.03074 9.4502 3.27344C9.90219 3.75555 10.4045 4.39895 10.8857 4.99121C11.3832 5.6035 11.8692 6.17643 12.3311 6.59473C12.8226 7.03987 13.1466 7.17759 13.3223 7.17773C13.834 7.17773 14.1098 6.88526 14.4854 6.28418C14.6479 6.02401 14.8669 5.6385 15.1162 5.35352C15.3908 5.03988 15.7959 4.73344 16.3779 4.7334C16.6607 4.7334 16.9491 4.817 17.2061 4.92285C17.4726 5.03272 17.7543 5.18716 18.0381 5.37109C18.6062 5.73929 19.223 6.25454 19.793 6.86523C20.912 8.06418 21.9678 9.75718 21.9678 11.5449V12.2441H2.23242V11.5449C2.23243 10.6581 2.49456 9.64914 2.87109 8.66797C3.25152 7.67671 3.76788 6.66455 4.32031 5.75684C4.87167 4.85095 5.47126 4.02833 6.02539 3.42285C6.30123 3.12146 6.58114 2.85675 6.85156 2.66211C7.09645 2.48587 7.43951 2.28825 7.82129 2.28809L7.95898 2.2959Z" fill="#1A132F"/>
</svg>
