<svg width="24" height="24" viewBox="0 0 24 24" fill="none" xmlns="http://www.w3.org/2000/svg">
<path d="M12.001 1.2998C13.7925 1.29982 15.2546 1.36391 16.4209 1.62012C17.6061 1.88058 18.548 2.35295 19.2314 3.20703C19.8211 3.9442 20.1652 4.90229 20.374 6.08496C19.9449 6.04405 19.4661 6.01895 18.9316 6.00781C18.7459 5.12381 18.4853 4.51548 18.1387 4.08203C17.717 3.555 17.1052 3.20478 16.1201 2.98828C15.1156 2.76764 13.7877 2.70021 12.001 2.7002C10.2143 2.7002 8.88639 2.7677 7.88184 2.98828C6.8966 3.20473 6.28497 3.55505 5.86328 4.08203C5.42573 4.629 5.12132 5.45348 4.9375 6.76074C4.75422 8.06452 4.70117 9.76451 4.70117 12C4.70117 14.2355 4.75422 15.9355 4.9375 17.2393C5.12132 18.5465 5.42573 19.371 5.86328 19.918C6.28497 20.445 6.8966 20.7953 7.88184 21.0117C8.88639 21.2323 10.2143 21.2998 12.001 21.2998C13.7877 21.2998 15.1156 21.2324 16.1201 21.0117C17.1052 20.7952 17.717 20.445 18.1387 19.918C18.3351 19.6724 18.5006 19.3692 18.6445 18.9932C19.1977 18.986 19.6945 18.9702 20.1406 18.9355C19.9307 19.6618 19.641 20.281 19.2314 20.793C18.548 21.6471 17.6061 22.1194 16.4209 22.3799C15.2546 22.6361 13.7925 22.7002 12.001 22.7002C10.2095 22.7002 8.74737 22.636 7.58105 22.3799C6.3957 22.1195 5.45404 21.647 4.77051 20.793C4.10284 19.9584 3.74854 18.841 3.55078 17.4346C3.35254 16.0246 3.2998 14.2379 3.2998 12C3.2998 9.76213 3.35254 7.97539 3.55078 6.56543C3.74854 5.15899 4.10284 4.04162 4.77051 3.20703C5.45404 2.35299 6.3957 1.88054 7.58105 1.62012C8.74737 1.36397 10.2095 1.2998 12.001 1.2998Z" fill="#4360DF"/>
<path fill-rule="evenodd" clip-rule="evenodd" d="M17.4082 6.86426C19.9173 6.86441 21.9511 8.8991 21.9512 11.4082C21.9511 12.41 21.6264 13.3358 21.0771 14.0869L22.9297 15.9395C23.2026 16.2129 23.2029 16.6565 22.9297 16.9297C22.6564 17.2027 22.2128 17.2026 21.9395 16.9297L20.0869 15.0771C19.3358 15.6264 18.41 15.9511 17.4082 15.9512C14.8991 15.9511 12.8644 13.9173 12.8643 11.4082C12.8644 8.89907 14.8991 6.86436 17.4082 6.86426ZM17.4082 8.26465C15.6723 8.26475 14.2648 9.67227 14.2646 11.4082C14.2648 13.1441 15.6723 14.5517 17.4082 14.5518C19.1441 14.5516 20.5516 13.1441 20.5518 11.4082C20.5517 9.6723 19.1441 8.2648 17.4082 8.26465Z" fill="#4360DF"/>
</svg>
