<svg width="24" height="24" viewBox="0 0 24 24" fill="none" xmlns="http://www.w3.org/2000/svg">
<path d="M6.00846 12.7339C5.99007 13.1201 5.66197 13.4187 5.2758 13.4003C4.88995 13.3818 4.59206 13.0542 4.61013 12.6683L4.96023 5.31623C4.97763 4.9561 5.26573 4.66781 5.62591 4.65056L12.9773 4.30115C13.3634 4.28283 13.6909 4.58071 13.7093 4.96682C13.7276 5.35293 13.4297 5.6804 13.0436 5.69879L6.32887 6.0192L6.00846 12.7339Z" fill="#4360DF"/>
<path d="M17.9915 11.266C18.0099 10.8799 18.338 10.5813 18.7242 10.5997C19.11 10.6182 19.4079 10.9458 19.3899 11.3316L19.0398 18.6838C19.0224 19.0439 18.7343 19.3322 18.3741 19.3494L11.0227 19.6989C10.6366 19.7172 10.3091 19.4193 10.2907 19.0332C10.2724 18.6471 10.5703 18.3196 10.9564 18.3012L17.6711 17.9808L17.9915 11.266Z" fill="#4360DF"/>
</svg>
