<svg width="176" height="48" viewBox="0 0 176 48" fill="none" xmlns="http://www.w3.org/2000/svg">
<g clip-path="url(#clip0_12588_8426)">
<rect width="176" height="48" rx="8" fill="#2A3441"/>
<rect x="59" y="4" width="60" height="100" rx="16" fill="#1B2433"/>
<path d="M86.6939 24.8522C88.4437 24.7536 89.5404 25.1546 91.2902 25.0552C91.6936 25.0347 92.0943 24.9751 92.4856 24.8758C92.517 24.8669 92.5558 24.8569 92.5871 24.8472C92.3315 28.0494 90.0315 30.8796 86.9176 31.0578L86.5589 31.0637C84.8328 31.0196 83.2013 29.9552 83.0072 28.2787L82.9924 28.1033C82.9176 26.6729 83.7428 25.6044 85.2039 25.1252L85.5044 25.0374C85.7962 24.961 86.0935 24.907 86.3933 24.8758L86.6939 24.8522ZM88.8423 26.359C88.1291 26.2833 87.5204 26.2203 86.7728 26.2624L86.7688 26.2634C86.4625 26.2796 86.1582 26.3267 85.8622 26.4043L85.8582 26.4053C85.2552 26.5614 84.8919 26.8139 84.6894 27.0587C84.4998 27.288 84.3806 27.5926 84.4027 28.0264C84.4477 28.8544 85.3829 29.7304 86.8368 29.6475L87.0448 29.6298C88.6767 29.4459 90.1003 28.2126 90.7778 26.4822C90.0388 26.4854 89.4071 26.4189 88.8423 26.359ZM91.0872 16.9427C92.999 16.8338 94.909 18.0016 95.0124 19.8971C95.0961 21.4229 94.1477 22.5367 92.5004 22.964C92.1114 23.0659 91.7127 23.128 91.3109 23.1493C89.5611 23.2479 88.4644 22.8464 86.7146 22.9443C86.3112 22.9647 85.9106 23.0253 85.5192 23.1246C85.4879 23.1342 85.4491 23.1446 85.4177 23.1542C85.6734 19.952 87.9732 17.1207 91.0872 16.9427ZM93.6012 19.974C93.5559 19.1461 92.6211 18.2703 91.168 18.3529C89.4505 18.4511 87.9325 19.7142 87.2261 21.5173C87.9656 21.5145 88.5976 21.5822 89.1626 21.6424C89.8755 21.7184 90.4836 21.7812 91.2311 21.739H91.236C91.5423 21.7228 91.8457 21.6747 92.1417 21.5971L92.1456 21.5961C92.7494 21.4395 93.1145 21.1869 93.3174 20.9418C93.5074 20.7121 93.6249 20.4069 93.6012 19.974Z" fill="#7DB1FF"/>
<path d="M98.5868 24C98.5868 15.4223 97.5777 14.4132 89 14.4132C80.4223 14.4132 79.4132 15.4223 79.4132 24C79.4132 32.5777 80.4223 33.5868 89 33.5868C97.5777 33.5868 98.5868 32.5777 98.5868 24ZM100 24C100 26.1475 99.9385 27.9276 99.6866 29.361C99.4326 30.8063 98.9591 32.0595 98.0093 33.0093C97.0595 33.9591 95.8063 34.4326 94.361 34.6866C92.9276 34.9385 91.1475 35 89 35C86.8525 35 85.0724 34.9385 83.639 34.6866C82.1937 34.4326 80.9405 33.9591 79.9907 33.0093C79.0409 32.0595 78.5674 30.8063 78.3134 29.361C78.0615 27.9276 78 26.1475 78 24C78 21.8525 78.0615 20.0724 78.3134 18.639C78.5674 17.1937 79.0409 15.9405 79.9907 14.9907C80.9405 14.0409 82.1937 13.5674 83.639 13.3134C85.0724 13.0615 86.8525 13 89 13C91.1475 13 92.9276 13.0615 94.361 13.3134C95.8063 13.5674 97.0595 14.0409 98.0093 14.9907C98.9591 15.9405 99.4326 17.1937 99.6866 18.639C99.9385 20.0724 100 21.8525 100 24Z" fill="#7DB1FF"/>
</g>
<defs>
<clipPath id="clip0_12588_8426">
<rect width="176" height="48" rx="8" fill="white"/>
</clipPath>
</defs>
</svg>
