<svg width="176" height="48" viewBox="0 0 176 48" fill="none" xmlns="http://www.w3.org/2000/svg">
<g clip-path="url(#clip0_12588_8425)">
<rect width="176" height="48" rx="8" fill="#F6F8FA"/>
<rect x="58.3333" y="4" width="60" height="120" rx="16" fill="#ECEFFB"/>
<path d="M176.333 0V48H0.333344L176.333 0Z" fill="#2A3441"/>
<path d="M117.818 15.958C118.154 17.2491 118.333 18.6037 118.333 20V48H58.333V32.1816L117.818 15.958Z" fill="#1B2433"/>
<path d="M88.333 13C90.4805 13 92.2609 13.0616 93.6943 13.3135C95.1395 13.5675 96.393 14.0406 97.3428 14.9902C98.2925 15.94 98.7655 17.1936 99.0195 18.6387C99.1438 19.346 99.2215 20.138 99.2686 21.0166L97.8711 21.3984C97.5979 15.2094 95.952 14.4131 88.333 14.4131C79.7556 14.4131 78.7461 15.4224 78.7461 24C78.7461 24.9583 78.7596 25.8221 78.7939 26.6006L77.3975 26.9814C77.3492 26.08 77.333 25.087 77.333 24C77.333 21.8525 77.3946 20.0721 77.6465 18.6387C77.9005 17.1935 78.3745 15.94 79.3242 14.9902C80.274 14.0407 81.5276 13.5675 82.9727 13.3135C84.4059 13.0616 86.1858 13 88.333 13ZM90.4209 16.9424C92.3326 16.8337 94.2423 18.002 94.3457 19.8975C94.4293 21.423 93.481 22.5365 91.834 22.9639C91.4451 23.0658 91.0462 23.1281 90.6445 23.1494C88.8947 23.2481 87.7976 22.8465 86.0479 22.9443C85.6445 22.9648 85.2438 23.0257 84.8525 23.125C84.8213 23.1346 84.7823 23.1447 84.751 23.1543C85.0067 19.9521 87.3069 17.1204 90.4209 16.9424ZM90.501 18.3525C88.7836 18.4509 87.266 19.7146 86.5596 21.5176C87.2991 21.5148 87.9311 21.5824 88.4961 21.6426C89.2089 21.7185 89.8171 21.7814 90.5645 21.7393H90.5693C90.8755 21.723 91.1787 21.6742 91.4746 21.5967L91.4785 21.5957C92.0823 21.4391 92.4475 21.1865 92.6504 20.9414C92.8404 20.7117 92.9583 20.4065 92.9346 19.9736C92.889 19.1459 91.9539 18.27 90.501 18.3525Z" fill="#4360DF"/>
<path d="M99.2686 21.0166C99.3169 21.9186 99.333 22.9122 99.333 24C99.333 26.1475 99.2714 27.9279 99.0195 29.3613C98.7655 30.8064 98.2925 32.06 97.3428 33.0098C96.393 33.9594 95.1395 34.4325 93.6943 34.6865C92.2609 34.9384 90.4805 35 88.333 35C86.1858 35 84.4059 34.9384 82.9727 34.6865C81.5276 34.4325 80.274 33.9593 79.3242 33.0098C78.3745 32.06 77.9005 30.8065 77.6465 29.3613C77.5221 28.6535 77.4445 27.8608 77.3975 26.9814L78.7939 26.6006C79.067 32.7904 80.7139 33.5869 88.333 33.5869C96.9107 33.5869 97.9199 32.5777 97.9199 24C97.9199 23.0413 97.9055 22.1772 97.8711 21.3984L99.2686 21.0166ZM86.0273 24.8525C87.7771 24.7539 88.8742 25.1551 90.624 25.0557C91.0273 25.0352 91.4282 24.9753 91.8193 24.876C91.8506 24.8671 91.8897 24.8572 91.9209 24.8477C91.6651 28.0496 89.3648 30.8795 86.251 31.0576L85.8926 31.0635C84.1665 31.0194 82.5349 29.9548 82.3408 28.2783L82.3262 28.1035C82.2513 26.6731 83.0761 25.6043 84.5371 25.125L84.8379 25.0371C85.1296 24.9607 85.4268 24.9072 85.7266 24.876L86.0273 24.8525ZM88.1758 26.3594C87.4627 26.2837 86.8539 26.2206 86.1064 26.2627L86.1025 26.2637C85.7962 26.2799 85.4914 26.3267 85.1953 26.4043L85.1914 26.4053C84.5885 26.5614 84.2249 26.8139 84.0225 27.0586C83.8329 27.2879 83.7143 27.5926 83.7363 28.0264C83.7814 28.8543 84.7162 29.7302 86.1699 29.6475L86.3779 29.6299C88.0098 29.446 89.4338 28.2128 90.1113 26.4824C89.3724 26.4857 88.7406 26.4193 88.1758 26.3594Z" fill="#7DB1FF"/>
</g>
<defs>
<clipPath id="clip0_12588_8425">
<rect width="176" height="48" rx="8" fill="white"/>
</clipPath>
</defs>
</svg>
