<svg width="176" height="48" viewBox="0 0 176 48" fill="none" xmlns="http://www.w3.org/2000/svg">
<g clip-path="url(#clip0_12588_8424)">
<rect width="176" height="48" rx="8" fill="#F6F8FA"/>
<rect x="58" y="4" width="60" height="100" rx="16" fill="#ECEFFB"/>
<path d="M85.6939 24.8522C87.4437 24.7536 88.5404 25.1546 90.2902 25.0552C90.6936 25.0347 91.0943 24.9751 91.4856 24.8758C91.517 24.8669 91.5558 24.8569 91.5871 24.8472C91.3315 28.0494 89.0315 30.8796 85.9176 31.0578L85.5589 31.0637C83.8328 31.0196 82.2013 29.9552 82.0072 28.2787L81.9924 28.1033C81.9176 26.6729 82.7428 25.6044 84.2039 25.1252L84.5044 25.0374C84.7962 24.961 85.0935 24.907 85.3933 24.8758L85.6939 24.8522ZM87.8423 26.359C87.1291 26.2833 86.5204 26.2203 85.7728 26.2624L85.7688 26.2634C85.4625 26.2796 85.1582 26.3267 84.8622 26.4043L84.8582 26.4053C84.2552 26.5614 83.8919 26.8139 83.6894 27.0587C83.4998 27.288 83.3806 27.5926 83.4027 28.0264C83.4477 28.8544 84.3829 29.7304 85.8368 29.6475L86.0448 29.6298C87.6767 29.4459 89.1003 28.2126 89.7778 26.4822C89.0388 26.4854 88.4071 26.4189 87.8423 26.359ZM90.0872 16.9427C91.999 16.8338 93.909 18.0016 94.0124 19.8971C94.0961 21.4229 93.1477 22.5367 91.5004 22.964C91.1114 23.0659 90.7127 23.128 90.3109 23.1493C88.5611 23.2479 87.4644 22.8464 85.7146 22.9443C85.3112 22.9647 84.9106 23.0253 84.5192 23.1246C84.4879 23.1342 84.4491 23.1446 84.4177 23.1542C84.6734 19.952 86.9732 17.1207 90.0872 16.9427ZM92.6012 19.974C92.5559 19.1461 91.6211 18.2703 90.168 18.3529C88.4505 18.4511 86.9325 19.7142 86.2261 21.5173C86.9656 21.5145 87.5976 21.5822 88.1626 21.6424C88.8755 21.7184 89.4836 21.7812 90.2311 21.739H90.236C90.5423 21.7228 90.8457 21.6747 91.1417 21.5971L91.1456 21.5961C91.7494 21.4395 92.1145 21.1869 92.3174 20.9418C92.5074 20.7121 92.6249 20.4069 92.6012 19.974Z" fill="#4360DF"/>
<path d="M97.5868 24C97.5868 15.4223 96.5777 14.4132 88 14.4132C79.4223 14.4132 78.4132 15.4223 78.4132 24C78.4132 32.5777 79.4223 33.5868 88 33.5868C96.5777 33.5868 97.5868 32.5777 97.5868 24ZM99 24C99 26.1475 98.9385 27.9276 98.6866 29.361C98.4326 30.8063 97.9591 32.0595 97.0093 33.0093C96.0595 33.9591 94.8063 34.4326 93.361 34.6866C91.9276 34.9385 90.1475 35 88 35C85.8525 35 84.0724 34.9385 82.639 34.6866C81.1937 34.4326 79.9405 33.9591 78.9907 33.0093C78.0409 32.0595 77.5674 30.8063 77.3134 29.361C77.0615 27.9276 77 26.1475 77 24C77 21.8525 77.0615 20.0724 77.3134 18.639C77.5674 17.1937 78.0409 15.9405 78.9907 14.9907C79.9405 14.0409 81.1937 13.5674 82.639 13.3134C84.0724 13.0615 85.8525 13 88 13C90.1475 13 91.9276 13.0615 93.361 13.3134C94.8063 13.5674 96.0595 14.0409 97.0093 14.9907C97.9591 15.9405 98.4326 17.1937 98.6866 18.639C98.9385 20.0724 99 21.8525 99 24Z" fill="#4360DF"/>
</g>
<defs>
<clipPath id="clip0_12588_8424">
<rect width="176" height="48" rx="8" fill="white"/>
</clipPath>
</defs>
</svg>
