<svg width="99" height="48" viewBox="0 0 99 48" fill="none" xmlns="http://www.w3.org/2000/svg">
<g clip-path="url(#clip0_12588_8274)">
<rect width="98.6667" height="48" rx="8" fill="#2A3441"/>
<foreignObject x="-4" y="-20" width="108" height="148"><div xmlns="http://www.w3.org/1999/xhtml" style="backdrop-filter:blur(12px);clip-path:url(#bgblur_1_12588_8274_clip_path);height:100%;width:100%"></div></foreignObject><g data-figma-bg-blur-radius="24">
<rect x="20" y="4" width="60" height="100" rx="16" fill="#1B2433"/>
<path d="M47.6939 24.8522C49.4437 24.7536 50.5404 25.1546 52.2902 25.0552C52.6936 25.0347 53.0943 24.9751 53.4856 24.8758C53.517 24.8669 53.5558 24.8569 53.5871 24.8472C53.3315 28.0494 51.0315 30.8796 47.9176 31.0578L47.5589 31.0637C45.8328 31.0196 44.2013 29.9552 44.0072 28.2787L43.9924 28.1033C43.9176 26.6729 44.7428 25.6044 46.2039 25.1252L46.5044 25.0374C46.7962 24.961 47.0935 24.907 47.3933 24.8758L47.6939 24.8522ZM49.8423 26.359C49.1291 26.2833 48.5204 26.2203 47.7728 26.2624L47.7688 26.2634C47.4625 26.2796 47.1582 26.3267 46.8622 26.4043L46.8582 26.4053C46.2552 26.5614 45.8919 26.8139 45.6894 27.0587C45.4998 27.288 45.3806 27.5926 45.4027 28.0264C45.4477 28.8544 46.3829 29.7304 47.8368 29.6475L48.0448 29.6298C49.6767 29.4459 51.1003 28.2126 51.7778 26.4822C51.0388 26.4854 50.4071 26.4189 49.8423 26.359ZM52.0872 16.9427C53.999 16.8338 55.909 18.0016 56.0124 19.8971C56.0961 21.4229 55.1477 22.5367 53.5004 22.964C53.1114 23.0659 52.7127 23.128 52.3109 23.1493C50.5611 23.2479 49.4644 22.8464 47.7146 22.9443C47.3112 22.9647 46.9106 23.0253 46.5192 23.1246C46.4879 23.1342 46.4491 23.1446 46.4177 23.1542C46.6734 19.952 48.9732 17.1207 52.0872 16.9427ZM54.6012 19.974C54.5559 19.1461 53.6211 18.2703 52.168 18.3529C50.4505 18.4511 48.9325 19.7142 48.2261 21.5173C48.9656 21.5145 49.5976 21.5822 50.1626 21.6424C50.8755 21.7184 51.4836 21.7812 52.2311 21.739H52.236C52.5423 21.7228 52.8457 21.6747 53.1417 21.5971L53.1456 21.5961C53.7494 21.4395 54.1145 21.1869 54.3174 20.9418C54.5074 20.7121 54.6249 20.4069 54.6012 19.974Z" fill="#7DB1FF"/>
<path d="M59.5868 24C59.5868 15.4223 58.5777 14.4132 50 14.4132C41.4223 14.4132 40.4132 15.4223 40.4132 24C40.4132 32.5777 41.4223 33.5868 50 33.5868C58.5777 33.5868 59.5868 32.5777 59.5868 24ZM61 24C61 26.1475 60.9385 27.9276 60.6866 29.361C60.4326 30.8063 59.9591 32.0595 59.0093 33.0093C58.0595 33.9591 56.8063 34.4326 55.361 34.6866C53.9276 34.9385 52.1475 35 50 35C47.8525 35 46.0724 34.9385 44.639 34.6866C43.1937 34.4326 41.9405 33.9591 40.9907 33.0093C40.0409 32.0595 39.5674 30.8063 39.3134 29.361C39.0615 27.9276 39 26.1475 39 24C39 21.8525 39.0615 20.0724 39.3134 18.639C39.5674 17.1937 40.0409 15.9405 40.9907 14.9907C41.9405 14.0409 43.1937 13.5674 44.639 13.3134C46.0724 13.0615 47.8525 13 50 13C52.1475 13 53.9276 13.0615 55.361 13.3134C56.8063 13.5674 58.0595 14.0409 59.0093 14.9907C59.9591 15.9405 60.4326 17.1937 60.6866 18.639C60.9385 20.0724 61 21.8525 61 24Z" fill="#7DB1FF"/>
</g>
</g>
<defs>
<clipPath id="bgblur_1_12588_8274_clip_path" transform="translate(4 20)"><rect x="20" y="4" width="60" height="100" rx="16"/>
</clipPath><clipPath id="clip0_12588_8274">
<rect width="98.6667" height="48" rx="8" fill="white"/>
</clipPath>
</defs>
</svg>
