<svg width="24" height="24" viewBox="0 0 24 24" fill="none" xmlns="http://www.w3.org/2000/svg">
<path fill-rule="evenodd" clip-rule="evenodd" d="M11.9995 4.89991C14.0971 4.89991 15.3232 5.47026 15.9819 6.36182C16.6141 7.21782 16.5991 8.22677 16.5991 8.74952C16.5991 9.27213 16.6142 10.281 15.9819 11.1372C15.8015 11.3815 15.5771 11.5996 15.3052 11.7905C16.0196 12.0394 16.5357 12.3974 16.8989 12.8345C17.6155 13.697 17.5991 14.7228 17.5991 15.2495C17.5991 15.7761 17.6156 16.8018 16.8989 17.6646C16.1703 18.5416 14.8258 19.0991 12.4995 19.0991H9.99756C9.54419 19.0991 9.14291 19.1004 8.82178 19.0571C8.48327 19.0115 8.14391 18.9076 7.86768 18.6314C7.59147 18.3549 7.48743 18.015 7.4419 17.6763C7.39878 17.3548 7.39991 16.9536 7.39991 16.4995V7.49952C7.3999 7.04542 7.39873 6.64418 7.4419 6.32276C7.48748 5.98402 7.59126 5.6441 7.86768 5.36768C8.14396 5.0914 8.48322 4.98752 8.82178 4.9419C9.14295 4.89867 9.54408 4.89991 9.99756 4.89991H11.9995ZM8.8003 16.4995C8.8003 16.9929 8.80191 17.2832 8.82959 17.4897C8.84053 17.5711 8.85391 17.6156 8.86182 17.6372C8.8829 17.6451 8.92677 17.6593 9.00928 17.6704C9.21537 17.6981 9.50565 17.6997 9.99854 17.6997H12.5005C14.648 17.6996 15.4817 17.1803 15.8228 16.77C16.1792 16.3406 16.2007 15.8111 16.2007 15.2495C16.2007 14.6879 16.1795 14.1585 15.8228 13.729C15.4817 13.3187 14.648 12.7994 12.5005 12.7993H8.8003V16.4995ZM9.99854 6.29932C9.50566 6.29932 9.21541 6.30093 9.00928 6.32862C8.92751 6.33963 8.88313 6.35295 8.86182 6.36084C8.85394 6.38202 8.8407 6.42688 8.82959 6.50928C8.80188 6.71582 8.8003 7.0061 8.8003 7.49952V11.1997H12.0005C13.8695 11.1996 14.5685 10.6958 14.8569 10.3052C15.1801 9.86705 15.2007 9.31626 15.2007 8.74952C15.2007 8.18269 15.1803 7.63196 14.8569 7.19385C14.5685 6.80321 13.8695 6.29941 12.0005 6.29932H9.99854Z" fill="#647084"/>
</svg>
