<svg width="24" height="24" viewBox="0 0 24 24" fill="none" xmlns="http://www.w3.org/2000/svg">
<path d="M13.694 3.4209C14.5796 3.45639 15.2896 4.16617 15.3249 5.05176C15.3263 5.08891 15.3259 5.12984 15.3259 5.16992V5.23242C15.3323 5.38843 15.4579 5.51411 15.6139 5.52051H16.071C17.2497 5.52049 18.0268 5.5101 18.6823 5.75488C19.7109 6.13907 20.5528 7.01177 20.8991 8.05371C21.1193 8.71689 21.082 9.46064 21.0407 10.583C20.9619 12.7274 20.7989 14.4297 20.487 15.7695C20.1744 17.1123 19.6994 18.1492 18.9528 18.9072C18.1998 19.6715 17.2386 20.0837 16.0944 20.3086C14.9639 20.5307 13.601 20.5801 11.9987 20.5801C10.3966 20.5801 9.0344 20.5307 7.90398 20.3086C6.75973 20.0837 5.79856 19.6717 5.04558 18.9072C4.29898 18.1492 3.82401 17.1123 3.5114 15.7695C3.19953 14.4297 3.03652 12.7274 2.95769 10.583C2.91644 9.46075 2.87914 8.71684 3.09929 8.05371C3.44552 7.0119 4.2877 6.13913 5.31609 5.75488C5.9716 5.51006 6.74871 5.52049 7.92742 5.52051H8.38445C8.54056 5.51422 8.6661 5.38849 8.67254 5.23242V5.16992C8.67254 5.12984 8.67206 5.0889 8.67351 5.05176C8.7088 4.16626 9.41896 3.45652 10.3044 3.4209C10.3416 3.41941 10.3833 3.41895 10.4235 3.41895H13.5749C13.6151 3.41895 13.6568 3.41942 13.694 3.4209ZM10.36 4.81934C10.2041 4.82592 10.0791 4.95136 10.0729 5.10742C10.0729 5.10883 10.073 5.11261 10.0729 5.11914C10.0728 5.13036 10.0719 5.14571 10.0719 5.16992C10.072 5.21005 10.0724 5.25093 10.071 5.28809C10.0355 6.1736 9.32567 6.88362 8.44011 6.91895C8.40296 6.92042 8.36207 6.9209 8.32195 6.9209H7.92742C6.62808 6.92089 6.1651 6.93107 5.80535 7.06543C5.17381 7.30154 4.64004 7.85529 4.42742 8.49512C4.30621 8.86037 4.31173 9.29749 4.35711 10.5322C4.43497 12.6501 4.59372 14.245 4.87468 15.4521C5.15497 16.6561 5.54459 17.4182 6.04363 17.9248C6.53635 18.4249 7.20277 18.7447 8.17351 18.9355C9.15805 19.129 10.4002 19.1797 11.9987 19.1797C13.5975 19.1797 14.8402 19.129 15.8249 18.9355C16.7956 18.7448 17.462 18.4248 17.9548 17.9248C18.4538 17.4182 18.8434 16.6561 19.1237 15.4521C19.4047 14.2451 19.5634 12.6501 19.6413 10.5322C19.6867 9.29727 19.6922 8.86041 19.571 8.49512C19.3583 7.85507 18.8239 7.30141 18.1921 7.06543C17.8324 6.93132 17.3696 6.92089 16.071 6.9209H15.6764C15.6363 6.9209 15.5954 6.92043 15.5583 6.91895C14.6728 6.88351 13.9629 6.17353 13.9274 5.28809C13.9259 5.25093 13.9255 5.21005 13.9255 5.16992V5.10742C13.9192 4.95127 13.7944 4.82579 13.6384 4.81934H10.36ZM11.9997 8.67188C14.127 8.67198 15.8511 10.3971 15.8512 12.5244C15.8511 14.6517 14.127 16.3759 11.9997 16.376C9.87227 16.376 8.14725 14.6518 8.14715 12.5244C8.14728 10.397 9.87228 8.67188 11.9997 8.67188ZM11.9997 10.0723C10.6455 10.0723 9.54767 11.1702 9.54754 12.5244C9.54764 13.8786 10.6455 14.9766 11.9997 14.9766C13.3538 14.9765 14.4517 13.8785 14.4518 12.5244C14.4517 11.1703 13.3538 10.0724 11.9997 10.0723Z" fill="#647084"/>
</svg>
