<svg width="24" height="24" viewBox="0 0 24 24" fill="none" xmlns="http://www.w3.org/2000/svg">
<path d="M21.5005 12C21.5005 3.5 20.5005 2.5 12.0005 2.5C3.50049 2.5 2.50049 3.5 2.50049 12C2.50049 20.5 3.50049 21.5 12.0005 21.5C20.5005 21.5 21.5005 20.5 21.5005 12ZM22.9009 12C22.9009 14.128 22.84 15.8921 22.5903 17.3125C22.3386 18.7446 21.8694 19.9865 20.9282 20.9277C19.987 21.8689 18.7451 22.3381 17.313 22.5898C15.8926 22.8395 14.1285 22.9004 12.0005 22.9004C9.87246 22.9004 8.10841 22.8395 6.68799 22.5898C5.25585 22.3381 4.01395 21.8689 3.07275 20.9277C2.13156 19.9865 1.66235 18.7446 1.41064 17.3125C1.16101 15.8921 1.1001 14.128 1.1001 12C1.1001 9.87197 1.16101 8.10792 1.41064 6.6875C1.66235 5.25536 2.13156 4.01346 3.07275 3.07227C4.01395 2.13107 5.25585 1.66187 6.68799 1.41016C8.10841 1.16053 9.87246 1.09961 12.0005 1.09961C14.1285 1.09961 15.8926 1.16053 17.313 1.41016C18.7451 1.66187 19.987 2.13107 20.9282 3.07227C21.8694 4.01346 22.3386 5.25536 22.5903 6.6875C22.84 8.10792 22.9009 9.87197 22.9009 12Z" fill="#647084"/>
<path d="M11.0705 13.769V12.6955C11.0705 12.2775 10.7285 11.9355 10.3105 11.9355H8.572C8.249 11.9355 7.9925 12.192 7.9925 12.515C7.9925 12.857 8.249 13.1135 8.572 13.1135H9.7215V13.8735C9.465 14.111 8.933 14.358 8.3725 14.358C7.223 14.358 6.387 13.4745 6.387 12.2775C6.387 11.0805 7.223 10.197 8.3725 10.197C8.857 10.197 9.332 10.406 9.693 10.7575C9.8165 10.881 9.9875 10.9475 10.149 10.9475C10.4815 10.9475 10.7855 10.672 10.7855 10.3395C10.7855 10.197 10.7285 10.045 10.624 9.931C10.13 9.399 9.3985 9 8.3725 9C6.52 9 5 10.273 5 12.2775C5 14.2725 6.52 15.5645 8.3725 15.5645C9.655 15.5645 11.0705 14.9185 11.0705 13.769Z" fill="#647084"/>
<path d="M13.7871 14.8425V9.722C13.7871 9.361 13.4831 9.057 13.1221 9.057C12.7421 9.057 12.4381 9.361 12.4381 9.722V14.8425C12.4381 15.2035 12.7421 15.5075 13.1031 15.5075C13.4831 15.5075 13.7871 15.2035 13.7871 14.8425Z" fill="#647084"/>
<path d="M19.6957 9.7125C19.6957 9.38 19.4297 9.114 19.1162 9.114H15.9147C15.4967 9.114 15.1547 9.456 15.1547 9.874V14.8425C15.1547 15.2035 15.4587 15.5075 15.8197 15.5075C16.1997 15.5075 16.5037 15.2035 16.5037 14.8425V13.3285C16.5037 13.0524 16.7276 12.8285 17.0037 12.8285H18.5904C18.9039 12.8285 19.1699 12.5625 19.1699 12.2395C19.1699 11.907 18.9039 11.641 18.5904 11.641H17.0037C16.7276 11.641 16.5037 11.4171 16.5037 11.141V10.8015C16.5037 10.5254 16.7276 10.3015 17.0037 10.3015H19.1162C19.4297 10.3015 19.6957 10.0355 19.6957 9.7125Z" fill="#647084"/>
</svg>
