<svg width="24" height="24" viewBox="0 0 24 24" fill="none" xmlns="http://www.w3.org/2000/svg">
<path d="M11.999 2.96484C13.8116 2.96485 15.2919 3.03415 16.4814 3.26465C17.6781 3.49658 18.6452 3.90395 19.3701 4.62891C20.0948 5.35385 20.5025 6.32009 20.7344 7.5166C20.9649 8.70615 21.0332 10.1865 21.0332 11.999C21.0332 13.8115 20.9649 15.2919 20.7344 16.4814C20.5024 17.6781 20.0951 18.6451 19.3701 19.3701C18.6451 20.0951 17.6781 20.5024 16.4814 20.7344C15.2919 20.9649 13.8115 21.0332 11.999 21.0332C10.1865 21.0332 8.70615 20.9649 7.5166 20.7344C6.32009 20.5025 5.35385 20.0948 4.62891 19.3701C3.90395 18.6452 3.49658 17.6781 3.26465 16.4814C3.03415 15.2919 2.96485 13.8116 2.96484 11.999C2.96485 10.1864 3.03413 8.70616 3.26465 7.5166C3.49658 6.3199 3.90393 5.35388 4.62891 4.62891C5.35388 3.90393 6.3199 3.49658 7.5166 3.26465C8.70616 3.03413 10.1864 2.96485 11.999 2.96484ZM9.77637 12.6494C7.63806 12.6494 6.19787 13.0495 5.31055 13.4297C4.89232 13.6089 4.59361 13.7855 4.40039 13.916C4.43959 14.8176 4.51464 15.5758 4.63867 16.2158C4.84079 17.2584 5.16266 17.9243 5.61816 18.3799C6.07384 18.8355 6.74025 19.1573 7.7832 19.3594C8.83332 19.5628 10.2006 19.6338 11.999 19.6338C13.7977 19.6338 15.1657 19.5629 16.2158 19.3594C16.3834 19.3269 16.5406 19.2887 16.6895 19.25C16.64 19.1168 16.5838 18.9678 16.5186 18.8066C16.2336 18.1026 15.8 17.1687 15.2031 16.2402C13.9916 14.3557 12.2165 12.6496 9.77637 12.6494ZM11.999 4.36523C10.2006 4.36524 8.83331 4.4352 7.7832 4.63867C6.74014 4.84082 6.07385 5.16248 5.61816 5.61816C5.16248 6.07385 4.84082 6.74014 4.63867 7.7832C4.4352 8.83331 4.36524 10.2006 4.36523 11.999C4.36523 12.1478 4.36619 12.2936 4.36719 12.4365C4.49872 12.3704 4.64189 12.3022 4.79785 12.2354C5.85508 11.7823 7.47069 11.3486 9.77637 11.3486C12.8921 11.3488 15.0071 13.5324 16.2959 15.5371C16.949 16.5531 17.4183 17.5641 17.7236 18.3184C17.7877 18.4765 17.8433 18.6245 17.8936 18.7588C18.078 18.6437 18.2399 18.5198 18.3799 18.3799C18.8355 17.9243 19.1572 17.2586 19.3594 16.2158C19.5629 15.1657 19.6338 13.7977 19.6338 11.999C19.6338 10.2006 19.5628 8.83332 19.3594 7.7832C19.1573 6.74025 18.8355 6.07384 18.3799 5.61816C17.9243 5.16266 17.2584 4.84079 16.2158 4.63867C15.1657 4.43515 13.7977 4.36524 11.999 4.36523ZM15.333 6.99902C16.2533 6.99916 16.9998 7.74472 17 8.66504C17 9.58552 16.2535 10.3319 15.333 10.332C14.4124 10.332 13.666 9.58561 13.666 8.66504C13.6662 7.74464 14.4126 6.99902 15.333 6.99902Z" fill="#647084"/>
</svg>
