<svg width="24" height="24" viewBox="0 0 24 24" fill="none" xmlns="http://www.w3.org/2000/svg">
<path d="M8.28793 3.03768C10.2605 2.22076 12.4483 2.07786 14.5106 2.63046C16.5728 3.18312 18.3954 4.40061 19.6952 6.09432C20.995 7.78826 21.6999 9.86445 21.7 11.9996H20.2997C20.2996 10.1727 19.697 8.39629 18.5848 6.94686C17.4726 5.49746 15.913 4.45494 14.1483 3.98202C12.3836 3.50917 10.511 3.63257 8.82309 4.33163C7.13547 5.03079 5.72485 6.2673 4.81137 7.84921C3.89793 9.43134 3.53303 11.2713 3.77133 13.0826C4.00981 14.8941 4.83878 16.5768 6.13071 17.8687C7.42267 19.1607 9.10536 19.9896 10.9168 20.2281C12.7281 20.4665 14.5681 20.1015 16.1502 19.1881L16.4998 19.7935L16.8495 20.4C15.0005 21.4674 12.8509 21.8953 10.7342 21.6168C8.61719 21.3381 6.65036 20.3689 5.14047 18.859C3.63062 17.3491 2.66137 15.3822 2.38266 13.2652C2.1042 11.1486 2.53207 8.9989 3.59946 7.14999C4.66712 5.30098 6.31533 3.85476 8.28793 3.03768ZM11.9989 7.69979C13.1162 7.69979 14.1345 8.12606 14.8993 8.82479V7.80038H16.2997V12.3004C16.2999 13.4048 17.1952 14.3003 18.2997 14.3004C19.404 14.3003 20.2994 13.4047 20.2997 12.3004V12.0006H21.6991V12.3004C21.6989 14.1779 20.1772 15.7007 18.2997 15.7008C17.1955 15.7007 16.2148 15.1735 15.5936 14.358C14.8248 15.5272 13.5025 16.3004 11.9989 16.3004C9.62435 16.3 7.69907 14.3742 7.69907 11.9996C7.69929 9.62518 9.62448 7.70015 11.9989 7.69979ZM11.9989 9.10018C10.3977 9.10054 9.09968 10.3984 9.09946 11.9996C9.09946 13.601 10.3975 14.8996 11.9989 14.9C13.6005 14.9 14.8993 13.6012 14.8993 11.9996C14.899 10.3982 13.6004 9.10018 11.9989 9.10018Z" fill="#647084"/>
</svg>
