<svg width="24" height="24" viewBox="0 0 24 24" fill="none" xmlns="http://www.w3.org/2000/svg">
<path d="M15.584 3.92163C16.4595 4.02815 17.2235 4.22143 17.8633 4.57397C18.5187 4.93528 19.0122 5.44651 19.3662 6.12769C20.0413 7.42693 20.1992 9.34262 20.1992 11.9998C20.1992 13.6317 20.1375 14.9701 19.9287 16.0476C19.7185 17.132 19.3474 18.0166 18.6816 18.6824C18.0158 19.3481 17.1314 19.7193 16.0469 19.9294C14.9695 20.1382 13.6318 20.1999 12 20.2C10.5858 20.2 9.39992 20.1535 8.41602 20.0183C7.43459 19.8835 6.60789 19.6547 5.9375 19.2615C4.51799 18.4286 4.02803 17.0037 3.86914 15.0574C3.8189 14.4416 3.79981 13.7562 3.7998 12.9998H5.2002C5.2002 13.7365 5.21869 14.3799 5.26465 14.9431C5.41206 16.7494 5.82969 17.5748 6.64551 18.0535C7.09276 18.3158 7.71586 18.5092 8.60645 18.6316C9.49499 18.7537 10.6056 18.7996 12 18.7996C13.6177 18.7995 14.8423 18.7362 15.7803 18.5544C16.7112 18.374 17.2958 18.0887 17.6924 17.6921C18.0888 17.2956 18.3743 16.7116 18.5547 15.781C18.7365 14.8429 18.7998 13.6177 18.7998 11.9998C18.7998 9.29904 18.6185 7.7248 18.124 6.77319C17.8932 6.32905 17.5931 6.02413 17.1875 5.80054C16.7662 5.56833 16.1993 5.40768 15.415 5.31226L15.5 4.61694L15.584 3.92163Z" fill="#647084"/>
<path d="M4.32495 9.49998V7.97867C4.32495 7.54117 4.40698 7.08627 4.57105 6.61397C4.74008 6.1367 4.96877 5.68677 5.25712 5.26418C5.55045 4.83663 5.87857 4.47619 6.2415 4.18286L7.49434 4.99572C7.20102 5.43819 6.95492 5.90055 6.75606 6.38279C6.56217 6.86006 6.46771 7.38705 6.47268 7.96376V9.49998H4.32495ZM8.10585 9.49998V7.97867C8.10585 7.54117 8.18788 7.08627 8.35194 6.61397C8.52097 6.1367 8.74967 5.68677 9.03802 5.26418C9.33134 4.83663 9.65947 4.47619 10.0224 4.18286L11.2752 4.99572C10.9819 5.43819 10.7358 5.90055 10.537 6.38279C10.3431 6.86006 10.2486 7.38705 10.2536 7.96376V9.49998H8.10585Z" fill="#647084"/>
</svg>
