<svg width="24" height="24" viewBox="0 0 24 24" fill="none" xmlns="http://www.w3.org/2000/svg">
<path d="M9.56858 15.4863C9.22903 15.2491 8.75712 15.2426 8.46422 15.5354C8.17133 15.8283 8.16876 16.3077 8.49708 16.5603C9.46695 17.3063 10.6816 17.7499 11.9998 17.7499C13.318 17.7499 14.5326 17.3063 15.5024 16.5603C15.8308 16.3077 15.8282 15.8283 15.5353 15.5354C15.2424 15.2426 14.7705 15.2491 14.4309 15.4863C13.742 15.9676 12.9039 16.2499 11.9998 16.2499C11.0956 16.2499 10.2575 15.9676 9.56858 15.4863Z" fill="#647084"/>
<path fill-rule="evenodd" clip-rule="evenodd" d="M21.8645 13.6499C21.9401 13.1946 21.8959 12.7435 21.7602 12.3174C21.5838 11.7641 21.253 11.2529 20.8292 10.8291L13.1708 3.17069C12.747 2.7469 12.2358 2.41605 11.6825 2.23972C11.6292 2.22274 11.5756 2.2072 11.5216 2.19314C11.1435 2.09476 10.7484 2.06921 10.35 2.13536C10.289 2.14549 10.2282 2.15617 10.1675 2.1674C5.51984 3.02813 2 7.10295 2 11.9999C2 17.5227 6.47715 21.9999 12 21.9999C16.8969 21.9999 20.9717 18.48 21.8325 13.8324C21.8437 13.7717 21.8544 13.7109 21.8645 13.6499ZM3.5 11.9999C3.5 8.08625 6.14622 4.78816 9.74701 3.8013C9.87574 3.76602 10 3.8664 10 3.99988C10 9.52272 14.4772 13.9999 20 13.9999C20.1335 13.9999 20.2339 14.1241 20.1986 14.2529C19.2117 17.8537 15.9136 20.4999 12 20.4999C7.30558 20.4999 3.5 16.6943 3.5 11.9999ZM20 12.4999C20.1011 12.4999 20.1641 12.3935 20.1094 12.3085C20.0185 12.1673 19.9054 12.0266 19.7685 11.8897L12.1101 4.23135C11.9733 4.09448 11.8326 3.98135 11.6914 3.89052C11.6064 3.83582 11.5 3.89879 11.5 3.99988C11.5 8.6943 15.3056 12.4999 20 12.4999Z" fill="#647084"/>
</svg>
