<svg width="24" height="24" viewBox="0 0 24 24" fill="none" xmlns="http://www.w3.org/2000/svg">
<path d="M11.1494 4.87343C11.9943 4.72779 12.8712 4.80182 13.6719 5.08925C14.4724 5.37674 15.1728 5.86837 15.6729 6.51699C16.1741 7.1673 16.4502 7.945 16.4502 8.75039C16.4499 9.13677 16.1364 9.45058 15.75 9.45058C15.3636 9.45058 15.0501 9.13677 15.0498 8.75039C15.0498 8.27046 14.886 7.79091 14.5635 7.37246C14.2396 6.95234 13.7679 6.61115 13.1982 6.40664C12.6287 6.20222 11.9975 6.14729 11.3877 6.25234C10.7777 6.3575 10.2285 6.61532 9.80664 6.98086C9.38587 7.3456 9.11289 7.79802 9.00391 8.27285C8.89543 8.74594 8.95029 9.23816 9.16699 9.69179C9.38494 10.1476 9.76252 10.5546 10.2676 10.8471C10.71 11.1032 11.2274 11.2577 11.7676 11.2924L12 11.3002H17C17.3866 11.3002 17.7002 11.6138 17.7002 12.0004C17.6999 12.3868 17.3864 12.7006 17 12.7006H15.4004C15.6838 12.9985 15.9196 13.3361 16.0957 13.7045C16.4463 14.4382 16.5411 15.254 16.3604 16.0414C16.1799 16.827 15.7381 17.5335 15.1104 18.0775C14.4834 18.6208 13.6952 18.9817 12.8506 19.1273C12.0058 19.273 11.1287 19.1989 10.3281 18.9115C9.52764 18.6241 8.82724 18.1323 8.32715 17.4838C7.82582 16.8335 7.54991 16.0557 7.5498 15.2504C7.5498 14.8638 7.8634 14.5502 8.25 14.5502C8.6366 14.5502 8.9502 14.8638 8.9502 15.2504C8.9503 15.7303 9.11399 16.2099 9.43652 16.6283C9.76044 17.0483 10.2322 17.3897 10.8018 17.5941C11.3713 17.7985 12.0026 17.8535 12.6123 17.7484C13.2222 17.6433 13.7716 17.3854 14.1934 17.0199C14.6141 16.6552 14.887 16.2027 14.9961 15.7279C15.1047 15.2548 15.0496 14.7626 14.833 14.309C14.6151 13.8531 14.2375 13.4462 13.7324 13.1537C13.2899 12.8975 12.7727 12.7421 12.2324 12.7074L12 12.7006H7C6.61355 12.7006 6.30005 12.3868 6.2998 12.0004C6.2998 11.6138 6.6134 11.3002 7 11.3002H8.60059C8.31686 11.0021 8.08062 10.665 7.9043 10.2963C7.55363 9.56259 7.45904 8.74674 7.63965 7.95937C7.82005 7.17368 8.26193 6.46738 8.88965 5.92324C9.51664 5.37985 10.3047 5.0191 11.1494 4.87343Z" fill="#647084"/>
</svg>
