<svg width="24" height="24" viewBox="0 0 24 24" fill="none" xmlns="http://www.w3.org/2000/svg">
<path d="M12.0005 1.7998C14.127 1.7998 15.8372 1.86151 17.1919 2.09961C18.5525 2.33875 19.6344 2.76866 20.4331 3.56738C21.2318 4.3661 21.6617 5.44799 21.9009 6.80859C22.139 8.16333 22.2007 9.87349 22.2007 12C22.2007 14.1265 22.139 15.8367 21.9009 17.1914C21.6617 18.552 21.2318 19.6339 20.4331 20.4326C19.6344 21.2313 18.5525 21.6613 17.1919 21.9004C15.8372 22.1385 14.127 22.2002 12.0005 22.2002C9.87397 22.2002 8.16382 22.1385 6.80908 21.9004C5.44848 21.6613 4.36659 21.2313 3.56787 20.4326C2.76915 19.6339 2.33923 18.552 2.1001 17.1914C1.862 15.8367 1.80029 14.1265 1.80029 12C1.80029 9.87349 1.862 8.16333 2.1001 6.80859C2.33923 5.44799 2.76915 4.3661 3.56787 3.56738C4.36659 2.76866 5.44848 2.33875 6.80908 2.09961C8.16382 1.86151 9.87397 1.7998 12.0005 1.7998Z" stroke="#647084" stroke-width="1.4"/>
<path d="M15.9268 10.1377H14.5264V8.90137H12.7002V14.5996H13.9365V16H10.0645V14.5996H11.2998V8.90137H9.47363V10.1377H8.07324V7.50098H15.9268V10.1377Z" fill="#647084"/>
</svg>
